<svg xmlns="http://www.w3.org/2000/svg" width="117" height="25" fill="none"><g fill="#fff" clip-path="url(#a)"><path fill-rule="evenodd" d="M14.802 7.678a5.787 5.787 0 0 0-3.218-.978V.9c2.291 0 4.531.681 6.436 1.956a11.613 11.613 0 0 1 1.755 17.846 11.58 11.58 0 0 1-12.624 2.514 11.588 11.588 0 0 1-5.199-4.272A11.61 11.61 0 0 1 0 12.5h5.792a5.805 5.805 0 0 0 3.576 5.358 5.784 5.784 0 0 0 6.312-1.257 5.801 5.801 0 0 0 1.255-6.32 5.798 5.798 0 0 0-2.133-2.603z" clip-rule="evenodd"/><path fill-rule="evenodd" d="M5.792.9a5.806 5.806 0 0 1-3.575 5.36A5.786 5.786 0 0 1 0 6.7v5.8a11.571 11.571 0 0 0 8.191-3.397A11.6 11.6 0 0 0 11.584.9H5.792z" clip-rule="evenodd"/><path d="M72.76 9.283h-2.81v8.938h2.81V9.283zm-2.498-1.674c.294.294.66.441 1.102.441.44 0 .802-.147 1.083-.441.282-.306.423-.674.423-1.104 0-.44-.14-.809-.423-1.103-.281-.294-.643-.441-1.083-.441-.441 0-.808.147-1.102.441-.282.294-.423.662-.423 1.103 0 .43.14.798.423 1.104zM29.63 18.221V5.236h2.884v10.447h5.75v2.538H29.63z"/><path fill-rule="evenodd" d="M43.456 18.423c-.918 0-1.75-.202-2.498-.606a4.72 4.72 0 0 1-1.745-1.693c-.428-.71-.642-1.508-.642-2.39 0-.883.214-1.674.642-2.373a4.625 4.625 0 0 1 1.745-1.655c.735-.417 1.568-.626 2.498-.626.931 0 1.764.203 2.498.607a4.58 4.58 0 0 1 1.745 1.674c.43.699.643 1.49.643 2.372 0 .883-.214 1.68-.642 2.391a4.719 4.719 0 0 1-1.745 1.693c-.735.404-1.568.606-2.498.606zm0-2.556c.405 0 .76-.086 1.066-.258.306-.183.539-.435.698-.754.171-.33.257-.705.257-1.122 0-.416-.086-.778-.257-1.085a1.802 1.802 0 0 0-.717-.735c-.294-.184-.642-.276-1.047-.276-.391 0-.74.092-1.047.276a1.803 1.803 0 0 0-.716.735 2.294 2.294 0 0 0-.257 1.104c0 .404.086.772.257 1.103.172.32.41.57.717.755a2.11 2.11 0 0 0 1.047.257zm7.112 5.849c.747.343 1.61.515 2.59.515.955 0 1.806-.19 2.553-.57a4.413 4.413 0 0 0 1.764-1.582c.428-.675.643-1.472.643-2.391V9.283h-2.756v.6a2.968 2.968 0 0 0-.698-.435c-.477-.233-1.022-.35-1.635-.35-.82 0-1.549.197-2.185.59a4.07 4.07 0 0 0-1.507 1.581c-.367.662-.55 1.41-.55 2.244 0 .821.183 1.57.55 2.244.368.674.87 1.207 1.507 1.6.636.392 1.365.588 2.185.588.6 0 1.145-.116 1.635-.35a3.28 3.28 0 0 0 .643-.398v.564c0 .626-.202 1.11-.606 1.453-.392.344-.937.515-1.635.515-.563 0-1.047-.098-1.45-.294a3.348 3.348 0 0 1-1.066-.864l-1.727 1.728c.429.614 1.01 1.086 1.745 1.417zm4.004-6.53c-.281.172-.618.258-1.01.258s-.734-.086-1.028-.258a1.814 1.814 0 0 1-.662-.698 2.086 2.086 0 0 1-.239-.975c0-.368.08-.699.24-.993.159-.295.385-.527.679-.7a1.98 1.98 0 0 1 1.01-.257c.392 0 .729.086 1.01.258.294.171.515.404.662.699.159.294.238.625.238.993s-.08.699-.238.993a1.68 1.68 0 0 1-.662.68zm9.46 3.237c-.919 0-1.752-.202-2.498-.606a4.718 4.718 0 0 1-1.745-1.693c-.429-.71-.643-1.508-.643-2.39 0-.883.214-1.674.643-2.373a4.623 4.623 0 0 1 1.745-1.655c.734-.417 1.567-.626 2.498-.626.93 0 1.763.203 2.498.607a4.58 4.58 0 0 1 1.745 1.674c.428.699.643 1.49.643 2.372 0 .883-.215 1.68-.643 2.391a4.718 4.718 0 0 1-1.746 1.693c-.734.404-1.567.606-2.497.606zm0-2.556c.404 0 .759-.086 1.065-.258.306-.183.539-.435.698-.754.171-.33.257-.705.257-1.122 0-.416-.086-.778-.257-1.085a1.801 1.801 0 0 0-.716-.735c-.294-.184-.643-.276-1.047-.276-.392 0-.741.092-1.047.276a1.8 1.8 0 0 0-.717.735 2.293 2.293 0 0 0-.257 1.104c0 .404.086.772.257 1.103.172.32.41.57.717.755a2.11 2.11 0 0 0 1.047.257zm15.482 2.538c-.6 0-1.15-.116-1.653-.35a3.508 3.508 0 0 1-.716-.439v4.375h-2.773V9.283h2.81V9.9c.204-.167.43-.312.68-.433a3.717 3.717 0 0 1 1.652-.368c.845 0 1.593.202 2.241.607a4.181 4.181 0 0 1 1.543 1.655c.38.699.57 1.496.57 2.39 0 .896-.19 1.693-.57 2.392a4.182 4.182 0 0 1-1.543 1.655c-.648.405-1.396.607-2.24.607zm-.513-2.538c.403 0 .752-.092 1.046-.276.306-.184.545-.435.717-.754.171-.319.257-.68.257-1.085 0-.417-.086-.785-.257-1.104a1.8 1.8 0 0 0-.717-.735 1.896 1.896 0 0 0-1.028-.276c-.392 0-.741.092-1.047.276a1.835 1.835 0 0 0-.698.735 2.294 2.294 0 0 0-.257 1.104c0 .405.08.766.238 1.085.172.319.41.57.717.754.306.184.649.276 1.029.276z" clip-rule="evenodd"/><path d="M86.618 18.24a6.128 6.128 0 0 0 1.561.202c1.115 0 1.996-.258 2.645-.773.661-.515.992-1.207.992-2.078 0-.564-.104-1.018-.312-1.36a2.43 2.43 0 0 0-.808-.847 4.821 4.821 0 0 0-1.047-.497 16.127 16.127 0 0 0-1.047-.312c-.33-.086-.6-.184-.809-.294-.208-.11-.312-.258-.312-.442 0-.172.08-.3.239-.386.16-.098.398-.147.716-.147.331 0 .668.067 1.01.202.356.135.674.368.956.699L92 10.588a3.69 3.69 0 0 0-1.58-1.158 5.312 5.312 0 0 0-2.094-.405c-.722 0-1.353.123-1.891.368-.54.245-.956.582-1.25 1.011-.293.417-.44.914-.44 1.49 0 .54.104.987.312 1.343.208.343.477.613.808.81.33.195.68.349 1.047.459l1.047.313c.33.085.6.19.808.312.22.11.33.276.33.497 0 .171-.091.306-.275.404-.171.099-.422.148-.753.148-.478 0-.919-.086-1.322-.258a3.22 3.22 0 0 1-1.047-.754l-1.598 1.619c.306.33.673.625 1.102.882.44.246.912.436 1.414.57zm10.322.184c-.82 0-1.548-.166-2.184-.497a3.838 3.838 0 0 1-1.47-1.398c-.356-.6-.533-1.287-.533-2.06V9.283h2.81v5.15c0 .306.05.57.148.79.11.221.269.393.477.515.208.123.46.184.753.184.416 0 .747-.129.992-.386.245-.27.367-.638.367-1.104v-5.15h2.811v5.169c0 .785-.178 1.477-.533 2.078a3.838 3.838 0 0 1-1.47 1.398c-.624.331-1.346.497-2.167.497zm8.378-9.141h-2.81v8.938h2.81v-5.223c0-.307.061-.564.184-.773a1.34 1.34 0 0 1 .532-.478c.221-.122.472-.184.753-.184.405 0 .741.129 1.011.386.282.246.422.595.422 1.049v5.223h2.811v-5.223c0-.307.061-.564.183-.773.135-.208.313-.367.533-.478a1.53 1.53 0 0 1 .753-.184c.404 0 .741.129 1.01.386.282.246.423.595.423 1.049v5.223h2.81v-5.536c0-.748-.159-1.385-.477-1.912a3.073 3.073 0 0 0-1.268-1.233c-.526-.294-1.133-.441-1.818-.441-.698 0-1.329.153-1.892.46a3.434 3.434 0 0 0-.96.756 3.125 3.125 0 0 0-.932-.793c-.49-.282-1.047-.423-1.671-.423-.662 0-1.256.14-1.782.423a3.097 3.097 0 0 0-.625.421v-.66z"/></g><defs><clipPath id="a"><path fill="#fff" d="M0 .9h117v23.198H0z"/></clipPath></defs></svg>