<svg xmlns="http://www.w3.org/2000/svg" width="84" height="33" fill="none"><g fill="#fff" clip-path="url(#a)"><path d="M38.509 28.69h2.187v-8.25H38.51v8.25zm0-9.538h2.187V17.19H38.51v1.962zm3.597 12.241h2.187v-3.635h.033c.466.707 1.222 1.174 2.38 1.174 2.123 0 3.57-1.69 3.57-4.36 0-2.573-1.399-4.358-3.586-4.358-1.126 0-1.898.53-2.429 1.254h-.048V20.44h-2.107v10.954zm4.134-4.279c-1.303 0-1.995-.98-1.995-2.477 0-1.48.547-2.654 1.914-2.654 1.351 0 1.898 1.094 1.898 2.654 0 1.56-.708 2.477-1.817 2.477zm8.4 1.818c2.06 0 3.475-.997 3.475-2.654 0-1.93-1.528-2.316-2.912-2.606-1.174-.241-2.268-.306-2.268-1.013 0-.595.563-.917 1.416-.917.933 0 1.496.322 1.592 1.206h1.979c-.161-1.657-1.367-2.734-3.539-2.734-1.882 0-3.362.852-3.362 2.638 0 1.801 1.448 2.203 2.928 2.493 1.126.225 2.171.306 2.171 1.094 0 .579-.547.949-1.512.949-.98 0-1.656-.419-1.801-1.368H50.78c.129 1.754 1.464 2.912 3.86 2.912zm11.78-.242v-8.25h-2.187v4.76c0 1.094-.628 1.866-1.657 1.866-.933 0-1.367-.53-1.367-1.496v-5.13h-2.172v5.5c0 1.801 1.03 2.976 2.863 2.976 1.159 0 1.802-.435 2.365-1.19h.048v.965h2.107zm1.415 0h2.188v-4.793c0-1.093.595-1.801 1.48-1.801.804 0 1.27.482 1.27 1.415v5.18h2.188v-4.794c0-1.093.563-1.801 1.48-1.801.804 0 1.27.482 1.27 1.415v5.18H79.9v-5.55c0-1.801-.981-2.927-2.719-2.927-1.045 0-1.914.547-2.477 1.448h-.032a2.462 2.462 0 0 0-2.284-1.448c-1.142 0-1.946.579-2.397 1.335h-.048v-1.11h-2.107v8.252zM38.541 14.558h2.188V3.057H38.54v11.5zm7.536.241c2.558 0 4.311-1.898 4.311-4.36 0-2.46-1.753-4.358-4.31-4.358-2.558 0-4.312 1.898-4.312 4.359 0 2.46 1.754 4.359 4.311 4.359zm0-1.673c-1.35 0-2.09-1.078-2.09-2.686 0-1.609.74-2.702 2.09-2.702 1.335 0 2.091 1.093 2.091 2.702 0 1.608-.756 2.686-2.09 2.686zm8.963 4.246c1.222 0 2.284-.29 2.976-.933.61-.563.98-1.35.98-2.509V6.306H56.89v.869h-.032c-.5-.692-1.255-1.094-2.284-1.094-2.091 0-3.571 1.576-3.571 4.037 0 2.493 1.801 3.94 3.635 3.94 1.045 0 1.673-.417 2.155-.964h.049v.9c0 1.127-.596 1.722-1.834 1.722-1.014 0-1.48-.402-1.657-.917H51.18c.225 1.608 1.608 2.573 3.86 2.573zm-.032-5.066c-1.126 0-1.866-.82-1.866-2.22 0-1.383.74-2.252 1.85-2.252 1.319 0 1.962 1.03 1.962 2.236 0 1.222-.563 2.236-1.946 2.236zm9.306 2.493c2.558 0 4.31-1.898 4.31-4.36 0-2.46-1.752-4.358-4.31-4.358-2.557 0-4.31 1.898-4.31 4.359 0 2.46 1.753 4.359 4.31 4.359zm0-1.673c-1.351 0-2.091-1.078-2.091-2.686 0-1.609.74-2.702 2.091-2.702 1.335 0 2.091 1.093 2.091 2.702 0 1.608-.756 2.686-2.091 2.686zm6.228-1.721H80V9.523h-9.458v1.882zm10.152 7.632c0-.37.3-.67.67-.67h1.34a.67.67 0 1 1 0 1.34h-1.34a.67.67 0 0 1-.67-.67z"/><path fill-rule="evenodd" d="M16.417.5c8.837 0 16 7.163 16 16s-7.163 16-16 16c-8.836 0-16-7.163-16-16s7.164-16 16-16zm-.578 1.197c-1.825.257-3.563 1.724-4.913 4.177A16.66 16.66 0 0 0 9.874 8.22a26.768 26.768 0 0 1 5.965-.775V1.697zM8.522 8.605a18.47 18.47 0 0 1 1.391-3.288c.669-1.217 1.463-2.267 2.357-3.073A14.875 14.875 0 0 0 2.16 12.353c.807-.895 1.857-1.688 3.073-2.357a18.47 18.47 0 0 1 3.288-1.391zm-.384 1.352a26.77 26.77 0 0 0-.775 5.965H1.615c.256-1.826 1.723-3.564 4.176-4.913a16.661 16.661 0 0 1 2.347-1.052zm.382 5.965c.047-2.308.38-4.475.93-6.39 1.914-.55 4.081-.882 6.389-.93v2.499a8.513 8.513 0 0 1-4.822 4.82H8.52zm-1.157 1.156H1.615c.256 1.826 1.723 3.564 4.176 4.913.712.391 1.498.744 2.347 1.052a26.77 26.77 0 0 1-.775-5.965zm2.086 6.39c-.55-1.915-.882-4.082-.93-6.39h2.498A8.512 8.512 0 0 1 15.84 21.9v2.499c-2.308-.048-4.475-.38-6.39-.93zm-.927.927a18.47 18.47 0 0 1-3.288-1.39c-1.216-.67-2.266-1.463-3.073-2.358a14.875 14.875 0 0 0 10.109 10.11c-.894-.807-1.688-1.858-2.357-3.074a18.468 18.468 0 0 1-1.391-3.288zm7.317 6.908c-1.825-.257-3.563-1.724-4.913-4.177a16.662 16.662 0 0 1-1.052-2.346c1.835.46 3.85.732 5.965.774v5.749zm4.726-.547c.894-.806 1.688-1.857 2.357-3.073a18.475 18.475 0 0 0 1.39-3.288 18.41 18.41 0 0 0 3.289-1.39c1.216-.67 2.266-1.463 3.073-2.358a14.875 14.875 0 0 1-10.11 10.11zm2.395-5.976c-.307.848-.66 1.635-1.052 2.346-1.349 2.453-3.087 3.92-4.912 4.177v-5.748a26.772 26.772 0 0 0 5.964-.775zm1.737-1.737c.849-.308 1.635-.66 2.346-1.052 2.453-1.35 3.92-3.087 4.177-4.913h-5.748a26.772 26.772 0 0 1-.775 5.965zm-.382-5.965c-.048 2.308-.38 4.475-.93 6.39-1.914.55-4.081.882-6.39.93V21.9a8.513 8.513 0 0 1 4.823-4.823h2.497zm1.157-1.156h5.748c-.257-1.826-1.724-3.564-4.177-4.913a16.661 16.661 0 0 0-2.346-1.052c.46 1.834.733 3.85.775 5.965zm-2.087-6.39c.55 1.915.882 4.082.93 6.39h-2.497a8.513 8.513 0 0 1-4.822-4.823V8.602c2.308.048 4.475.38 6.39.93zm.928-.927c1.2.382 2.306.85 3.288 1.39 1.216.67 2.266 1.463 3.073 2.358a14.875 14.875 0 0 0-10.11-10.11c.895.807 1.689 1.857 2.358 3.074.54.982 1.008 2.087 1.39 3.288zm-7.317-6.908c1.825.257 3.563 1.724 4.912 4.177.391.711.745 1.498 1.052 2.346a26.768 26.768 0 0 0-5.964-.775V1.697z" clip-rule="evenodd"/></g><defs><clipPath id="a"><path fill="#fff" d="M0 .5h84v32H0z"/></clipPath></defs></svg>