<svg xmlns="http://www.w3.org/2000/svg" width="107" height="27" fill="none"><g fill="#fff" clip-path="url(#a)"><path fill-rule="evenodd" d="M6.34 2.46v23.658H0V2.459h6.34zm3.171 0h13.474c4.378 0 7.926 3.53 7.926 7.886 0 4.355-3.548 7.886-7.926 7.886h-7.133v7.886h-6.34V2.459zm6.34 9.463h7.134a1.58 1.58 0 0 0 1.585-1.577c0-.872-.71-1.578-1.585-1.578h-7.133v3.155zM54.689 2.46v12.223c0 2.831 2.306 5.126 5.152 5.126 2.845 0 5.152-2.295 5.152-5.126V2.459h6.34v12.224c0 6.315-5.145 11.435-11.492 11.435-6.348 0-11.493-5.12-11.493-11.435V2.459h6.34z" clip-rule="evenodd"/><path fill-rule="evenodd" d="M33.289 13.5c0-6.098 4.968-11.04 11.096-11.04h1.585v6.308h-1.585c-2.626 0-4.755 2.119-4.755 4.732v.789c0 6.533-5.323 11.829-11.89 11.829h-.792v-6.309h.793c3.064 0 5.548-2.472 5.548-5.52V13.5z" clip-rule="evenodd"/><path d="M107 3.248a2.372 2.372 0 0 1-2.378 2.366 2.371 2.371 0 0 1-2.377-2.366 2.371 2.371 0 0 1 2.377-2.366A2.372 2.372 0 0 1 107 3.248zm-28.858 22.87 3.025-12.607 2.25 7.585c1.34 4.523 7.78 4.523 9.122 0l2.25-7.585 3.025 12.607h6.519L99.575 6.295c-1.131-4.714-7.808-4.889-9.187-.24l-2.41 8.129-2.41-8.13c-1.38-4.648-8.056-4.473-9.188.24l-4.757 19.824h6.519z"/></g><defs><clipPath id="a"><path fill="#fff" d="M0 .882h107v25.236H0z"/></clipPath></defs></svg>