<svg xmlns="http://www.w3.org/2000/svg" width="60" height="45" fill="none"><g fill="#fff" clip-path="url(#a)"><path d="M60 1.646c0 .437-.176.856-.488 1.164a1.677 1.677 0 0 1-2.357 0 1.636 1.636 0 0 1 0-2.328 1.677 1.677 0 0 1 2.357 0c.312.309.488.728.488 1.164z"/><path fill-rule="evenodd" d="M15.278 44.774C6.84 44.774 0 38.017 0 29.682V1.098h5.556v28.584a9.544 9.544 0 0 0 2.847 6.791 9.783 9.783 0 0 0 6.875 2.813c5.436 0 9.722-4.139 9.722-9.378h5.556v8.232c0 .364.146.713.406.97a1.397 1.397 0 0 0 1.964 0 1.36 1.36 0 0 0 .407-.97V28.4a7.03 7.03 0 0 1-3.05-.061 6.978 6.978 0 0 1-2.731-1.348 6.874 6.874 0 0 1-1.882-2.373 6.79 6.79 0 0 1-.67-2.941V7.957c0-1.819.732-3.564 2.034-4.85a6.988 6.988 0 0 1 4.91-2.01c1.842 0 3.609.723 4.91 2.01a6.818 6.818 0 0 1 2.035 4.85V38.14c0 .364.146.713.407.97a1.398 1.398 0 0 0 1.964 0c.26-.257.407-.606.407-.97V7.957c0-1.819.731-3.564 2.034-4.85a6.988 6.988 0 0 1 4.91-2.01c1.842 0 3.608.723 4.91 2.01a6.818 6.818 0 0 1 2.035 4.85V38.14c0 1.274-.36 2.523-1.038 3.607a6.914 6.914 0 0 1-2.801 2.529 7.019 7.019 0 0 1-7.273-.648A6.97 6.97 0 0 1 40.278 45a6.97 6.97 0 0 1-4.167-1.372 6.986 6.986 0 0 1-2.827 1.243 7.029 7.029 0 0 1-3.093-.093 6.977 6.977 0 0 1-2.746-1.412 6.87 6.87 0 0 1-1.852-2.449c-2.729 2.411-6.359 3.857-10.315 3.857zm33.333-5.262a1.381 1.381 0 0 1-1.389-1.372V7.957c0-.364.147-.713.407-.97a1.398 1.398 0 0 1 1.964 0c.26.257.407.606.407.97V38.14a1.38 1.38 0 0 1-1.389 1.372zM33.333 21.677c0 .364-.146.713-.407.97a1.397 1.397 0 0 1-1.964 0 1.363 1.363 0 0 1-.406-.97V7.957c0-.364.146-.713.406-.97a1.397 1.397 0 0 1 1.964 0c.261.257.407.606.407.97v13.72z" clip-rule="evenodd"/><path fill-rule="evenodd" d="M8.333 29.909c0 1.819.732 3.564 2.034 4.85a6.988 6.988 0 0 0 4.91 2.01 6.988 6.988 0 0 0 4.911-2.01 6.818 6.818 0 0 0 2.034-4.85V7.956a6.813 6.813 0 0 0-2.034-4.85 6.988 6.988 0 0 0-4.91-2.01 6.988 6.988 0 0 0-4.91 2.01 6.818 6.818 0 0 0-2.035 4.85v21.951zm6.945 1.372a1.381 1.381 0 0 1-1.39-1.372V7.956c0-.364.147-.713.408-.97a1.397 1.397 0 0 1 1.964 0c.26.257.407.606.407.97v21.951c0 .758-.623 1.372-1.39 1.372z" clip-rule="evenodd"/></g><defs><clipPath id="a"><path fill="#fff" d="M0 0h60v45H0z"/></clipPath></defs></svg>